<?xml version="1.0" encoding="UTF-8"?><svg id="Layer_2" xmlns="http://www.w3.org/2000/svg" viewBox="0 0 158.42 158.42"><defs><style>.cls-1,.cls-2{fill:#fff;}.cls-3{fill:#ff8001;}.cls-4{fill:#349980;}.cls-2{stroke:#000;stroke-miterlimit:10;stroke-width:3px;}</style></defs><g id="Layer_1-2"><g><circle class="cls-2" cx="79.21" cy="79.21" r="77.71"/><g><ellipse class="cls-1" cx="77.07" cy="44.25" rx="36.12" ry="32.55"/><path d="M120.29,44.25c1.07,17.27-11.97,31.64-27.79,36.43-24.79,8.12-55.48-8.75-54.54-36.43,1.52-20.55,18.71-35.83,39.12-36.74,21.23-1.29,42.42,14.3,43.21,36.74h0Zm-14.18,0c1-20.59-22.74-32.83-41.1-26.99-7.83,2.33-15.12,7.61-18.85,15.02-5.34,11.17-.83,25.25,8.91,32.24,18.93,14.21,48.66,4.09,51.04-20.26h0Z"/></g><g><rect class="cls-1" x="60.47" y="76.8" width="33.21" height="60.83"/><path d="M96.33,140.28c-13.63,1.84-29.78,4.02-43.55,4.93,.3-2.91,6.23-63.85,6.68-68.41l.09-.9,.91-.1c3.35-.36,36.07-3.8,38.35-4.04-1.65,12.1-2.63,24.16-3.17,36.27-.44,11.25-1.21,20.44,.68,32.25h0Zm-5.31-5.31c2.09-8.43,.96-19.5,.68-28.58-.48-9.85-1.17-19.87-2.52-29.59l4.5,4.5-33.21-3.5,1-1,5.94,60.83-6.94-6.94c10.11,1.12,20.01,3.01,30.55,4.29h0Z"/></g><g><circle class="cls-4" cx="77.07" cy="119.02" r="7.11"/><path d="M85,121.14c-2.22,7.01-11.61,8.78-15.82,2.44-2.87-4.1-1.32-10.43,3.15-12.78,6.92-3.97,15.18,2.94,12.67,10.35h0Zm-2.11-.56c1.14-6.72-8.27-9.03-10.44-2.8-2.02,7.17,8.69,10.03,10.44,2.8h0Z"/></g><g><circle class="cls-3" cx="77.07" cy="94.35" r="7.11"/><path d="M74.95,102.28c-7.01-2.22-8.78-11.61-2.44-15.82,4.1-2.87,10.43-1.32,12.78,3.15,3.97,6.92-2.94,15.18-10.35,12.67h0Zm.56-2.11c6.72,1.14,9.03-8.27,2.8-10.44-7.17-2.02-10.03,8.69-2.8,10.44h0Z"/></g></g></g></svg>